<?xml version="1.0" encoding="utf-8"?>
<!-- Generator: Adobe Illustrator 19.2.1, SVG Export Plug-In . SVG Version: 6.00 Build 0)  -->
<svg version="1.1" id="レイヤー_1" xmlns="http://www.w3.org/2000/svg" xmlns:xlink="http://www.w3.org/1999/xlink" x="0px"
	 y="0px" viewBox="0 0 50 50" style="enable-background:new 0 0 50 50;" xml:space="preserve">
<style type="text/css">
	.st0{fill:#FFFFFF;}
</style>
<g id="Photo">
	<g>
		<path class="st0" d="M39,15.3h-5L31.5,11h-13l-2.6,4.3h-5c-1.1,0-3.2,1.1-3.2,3.2v17.3c0,1.8,1.6,3.2,3,3.2h28.4
			c1.4,0,3.2-1.5,3.2-3.2V18.5C42.3,17.4,41.2,15.3,39,15.3z M40.1,35.8c0,0.4-0.7,1-1,1H10.7c-0.2,0-0.9-0.5-0.9-1.1V18.5
			c0-0.7,0.9-1,1.1-1h6.2l0.6-1l2-3.3h10.6l1.9,3.3l0.6,1H39c0.8,0,1.1,1,1.1,1.1V35.8z M25,18.5c-4.2,0-7.6,3.4-7.6,7.6
			s3.4,7.6,7.6,7.6c4.2,0,7.6-3.4,7.6-7.6S29.2,18.5,25,18.5z M25,31.5c-3,0-5.4-2.4-5.4-5.4s2.4-5.4,5.4-5.4c3,0,5.4,2.4,5.4,5.4
			S28,31.5,25,31.5z"/>
	</g>
</g>
</svg>
