<?xml version="1.0" encoding="utf-8"?>
<!-- Generator: Adobe Illustrator 19.2.1, SVG Export Plug-In . SVG Version: 6.00 Build 0)  -->
<svg version="1.1" id="レイヤー_1" xmlns="http://www.w3.org/2000/svg" xmlns:xlink="http://www.w3.org/1999/xlink" x="0px"
	 y="0px" viewBox="0 0 50 50" style="enable-background:new 0 0 50 50;" xml:space="preserve">
<style type="text/css">
	.st0{fill:#FFFFFF;}
</style>
<g>
	<g>
		<path class="st0" d="M25,40.8c-0.5,0-0.9-0.4-0.9-0.9V21.3l-7.8-10.5c-0.3-0.4-0.2-1,0.2-1.3c0.4-0.3,1-0.2,1.3,0.2l8,10.8
			c0.1,0.2,0.2,0.4,0.2,0.6v18.9C25.9,40.4,25.5,40.8,25,40.8z"/>
		<path class="st0" d="M25,21.9c-0.2,0-0.4-0.1-0.6-0.2c-0.4-0.3-0.5-0.9-0.2-1.3l8-10.8c0.3-0.4,0.9-0.5,1.3-0.2
			c0.4,0.3,0.5,0.9,0.2,1.3l-8,10.8C25.6,21.8,25.3,21.9,25,21.9z"/>
	</g>
	<path class="st0" d="M33.4,26.2H16.6c-0.5,0-0.9-0.4-0.9-0.9s0.4-0.9,0.9-0.9h16.7c0.5,0,0.9,0.4,0.9,0.9S33.9,26.2,33.4,26.2z"/>
	<path class="st0" d="M33.4,33.1H16.6c-0.5,0-0.9-0.4-0.9-0.9c0-0.5,0.4-0.9,0.9-0.9h16.7c0.5,0,0.9,0.4,0.9,0.9
		C34.3,32.6,33.9,33.1,33.4,33.1z"/>
</g>
</svg>
