<?xml version="1.0" encoding="utf-8"?>
<!-- Generator: Adobe Illustrator 19.2.1, SVG Export Plug-In . SVG Version: 6.00 Build 0)  -->
<svg version="1.1" id="レイヤー_1" xmlns="http://www.w3.org/2000/svg" xmlns:xlink="http://www.w3.org/1999/xlink" x="0px"
	 y="0px" viewBox="0 0 200 122.9" style="enable-background:new 0 0 200 122.9;" xml:space="preserve">
<style type="text/css">
	.st0{fill:#BFA14F;}
</style>
<g>
	<path class="st0" d="M90.8,122.8c-1.4,0-2.7,0-4.1,0c-1.3,0-2.4-0.5-3-1.7c-2.4-5-4.7-10-7.1-15c-2.2-4.8-4.4-9.6-6.6-14.5
		c-1.7-3.7-3.3-7.5-4.9-11.3c-2.2-4.9-4.4-9.7-6.7-14.6c-0.2-0.5-0.8-1.1-1.2-1.1s-1,0.6-1.3,1.1c-3.2,5.5-6.2,11.1-9.5,16.4
		c-4,6.4-8.1,12.8-12.5,18.9c-4.2,5.9-8.8,11.5-13.2,17.3c-0.8,1-1.3,2.2-2.2,3c-0.6,0.6-1.7,1.1-2.6,1.2c-3.1,0.2-6.3,0.1-9.4,0.2
		c-1.5,0-2.9,0.2-4.4,0.2c-0.8,0-1.5-0.4-2.3-0.7c0.3-0.7,0.4-1.6,0.8-2.2c1.8-2.3,3.9-4.5,5.7-6.8c2-2.5,4-5.2,6-7.8
		c1.7-2.2,3.6-4.3,5.2-6.6c2.3-3.1,4.4-6.4,6.6-9.6c2.9-4.2,6-8.3,8.8-12.6C35.6,73,38,69,40.3,65c3.4-6,6.8-12,10-18.1
		c1.5-2.8,2.5-5.8,3.8-8.7c0.7-1.6,1.5-3.3,2.3-4.9c0.1-0.2,0.3-0.4,0.6-0.6c3.7-2.7,7.4-5.4,11.1-8.1c2.4-1.7,4.7-3.5,7.1-5.2
		c0.5-0.4,1.3-0.4,2-0.6c0.1,0.7,0.5,1.4,0.3,2c-1.3,3.8-2.6,7.6-4.1,11.4c-1,2.7-2.1,5.4-3.3,8c-1.2,2.6-2.7,5-4,7.5
		c-1.1,2.1-2.1,4.3-3,6.5c-0.8,1.9-0.2,3.8,0.7,5.5c1.5,3.3,3.1,6.5,4.6,9.8c2.3,5.1,4.7,10.1,6.9,15.2c2.5,5.6,4.8,11.2,7.2,16.8
		c0.1,0.3,0.2,0.6,0.3,0.7c0.4,0.4,0.9,0.7,1.3,1c0.2-0.5,0.7-1,0.7-1.5c0-4.3-0.2-8.7-0.2-13c0-9.8,0-19.5,0-29.3
		c0-11,0-22-0.1-32.9c0-4.6,0-9.1-0.1-13.7c0-1.9,0.8-3.2,2.1-4.2c3.4-2.5,6.9-5,10.4-7.5c0.4-0.3,0.8-0.5,1.3-0.7
		c1.4-0.6,2.1-0.1,2.1,1.4c0,3.4-0.1,6.8-0.1,10.2c0,12.7-0.1,25.5-0.1,38.2c-0.1,18.4-0.1,36.9-0.2,55.3c0,4.8,0.1,9.7,0.2,14.5
		c0,1.8-0.5,2.4-2.4,2.5c-1.1,0-2.3,0.2-3.4,0.3C93.2,122.9,92,122.9,90.8,122.8L90.8,122.8z"/>
	<path class="st0" d="M120.3,39c0,9,0,17.9,0,26.9c0,1.2,0.5,1.7,1.6,1.9c1,0.1,2.1,0.1,3.1,0.2c6.9,0,13.7,0,20.6,0.1
		c1.4,0,2.7,0.1,4.1-0.1c1.2-0.2,1.7-0.9,1-2.1c-1.9-3.6-3.9-7.2-5.7-10.9c-1.5-3-2.7-6.2-4.1-9.2c-1-2.4-2.1-4.8-3.1-7.2
		c-1.3-3.4-2.6-6.8-3.9-10.2c-0.6-1.5-1.1-3-1.4-4.5c-0.1-0.6-0.1-1.4,0.3-1.8c0.2-0.2,1.2-0.1,1.6,0.1c4.3,2.1,8.5,4.2,12.7,6.4
		c1.7,0.9,2.7,2.2,3.3,4.2c1.1,3.8,2.8,7.5,4.3,11.2c1.1,2.6,2.1,5.3,3.3,7.8c1.3,2.8,2.8,5.6,4.3,8.3c3.6,6.5,7.1,12.9,10.8,19.3
		c2.5,4.3,5.3,8.4,8.2,12.5c3.7,5.3,7.6,10.5,11.5,15.7c1.8,2.4,3.9,4.5,5.8,6.8c1.6,1.8,1.9,3.3,1,5.4c-0.1,0.3-0.2,0.6-0.2,1
		c-0.1,1.5-1,2.1-2.3,2.1c-3.5,0.1-6.9,0.1-10.4,0c-0.5,0-1.2-0.6-1.5-1c-3.5-4.6-7.1-9.1-10.4-13.7c-2.3-3.3-4.3-6.8-6.5-10.3
		c-1.7-2.7-3.5-5.3-5.1-8c-2.5-4.3-5-8.7-7.4-13.1c-0.8-1.4-1.9-1.7-3.4-1.7c-4.7,0.1-9.4,0.1-14.2,0c-5.1-0.1-10.2-0.2-15.3-0.3
		c-1.9,0-2.6,0.6-2.6,2.6c0.1,14.4,0.2,28.7,0.3,43.1c0,2.2-0.5,2.7-2.7,2.7c-3.1,0-6.1,0-9.2,0c-2.7,0-3.2-0.6-3.2-3.2
		c0-11.4,0-22.8-0.1-34.2c0-14.3-0.1-28.5-0.1-42.8c0-7.2,0.1-14.5,0.1-21.7c0-4.6-0.2-9.2-0.3-13.8c0-1.7,0-3.5,0.1-5.2
		c0.1-0.6,0.5-1.3,1-1.7c0.2-0.1,1,0.4,1.5,0.7c3.6,2.5,7.1,5.1,10.6,7.6c1.4,1,2,2.4,1.9,4.1C120.3,21.3,120.3,30.1,120.3,39
		L120.3,39z"/>
</g>
</svg>
