<?xml version="1.0" encoding="utf-8"?>
<!-- Generator: Adobe Illustrator 19.2.1, SVG Export Plug-In . SVG Version: 6.00 Build 0)  -->
<svg version="1.1" id="レイヤー_1" xmlns="http://www.w3.org/2000/svg" xmlns:xlink="http://www.w3.org/1999/xlink" x="0px"
	 y="0px" viewBox="0 0 24 30" style="enable-background:new 0 0 24 30;" xml:space="preserve">
<style type="text/css">
	.st0{fill:#BFA14F;}
</style>
<path class="st0" d="M6.2,2.4C6.3,2.4,6.3,2.4,6.2,2.4C6.6,3.1,8.4,7.2,8.7,8c0,0.1-0.1,0.2-0.3,0.5c-0.2,0.3-0.8,1-1.6,2l-0.7,0.8
	l0.4,0.9c0.3,0.7,1.1,2.2,2.8,4.6c1.7,2.4,2.8,3.7,3.4,4.2l0.7,0.7l1-0.3c0.9-0.3,2.1-0.7,2.4-0.8c0.3-0.1,0.5-0.1,0.5-0.1
	c0,0,0,0,0,0c0.5,0.5,3.8,3.6,4.4,4.2c0,0.1,0,0.2-0.2,0.4c-1.3,1.2-3,2.4-3.6,2.5c-3-0.7-6.7-4.1-10.5-9.6
	C3.7,12.6,1.9,7.9,2.3,4.9c0.3-0.5,2-1.7,3.6-2.5C6,2.4,6.1,2.4,6.2,2.4 M6.5,0.8C6.1,0.7,5.6,0.8,5.2,1c0,0-4.3,2.1-4.5,3.6
	C0,8.9,3.3,14.8,6.2,19c2.9,4.2,7.2,9.3,11.6,10.2l0,0c1.5,0.3,4.9-2.9,4.9-3c0.9-0.9,0.8-2,0.3-2.6c-0.3-0.3-4.1-4-4.6-4.4
	c-0.2-0.2-0.5-0.3-0.8-0.4c-0.4-0.1-0.8,0-1.3,0.1c-0.5,0.1-1.8,0.6-2.5,0.9c-0.5-0.5-1.6-1.7-3.2-4c-1.6-2.3-2.4-3.8-2.6-4.4
	c0.5-0.5,1.4-1.7,1.7-2c0.5-0.7,0.7-1.5,0.5-2C10,6.9,7.9,2.1,7.7,1.6C7.5,1.2,7.1,0.9,6.5,0.8L6.5,0.8z"/>
</svg>
