<?xml version="1.0" encoding="utf-8"?>
<!-- Generator: Adobe Illustrator 19.2.1, SVG Export Plug-In . SVG Version: 6.00 Build 0)  -->
<svg version="1.1" id="レイヤー_1" xmlns="http://www.w3.org/2000/svg" xmlns:xlink="http://www.w3.org/1999/xlink" x="0px"
	 y="0px" viewBox="0 0 50 50" style="enable-background:new 0 0 50 50;" xml:space="preserve">
<style type="text/css">
	.st0{fill:#FFFFFF;}
</style>
<g id="Envelope">
	<path class="st0" d="M42.3,15.6c0-0.2,0-0.4-0.1-0.6c-0.3-1.2-1.1-1.8-2.6-1.8H11.5c-1.3,0-2.7,0.5-3.4,1.4c-0.1,0-0.1,0.1-0.2,0.2
		c-0.2,0.3-0.3,0.6-0.2,0.9c0,0.1,0,0.2,0,0.3v17.3c0,1.8,2,3.8,3.8,3.8h28.1c1.8,0,2.7-2,2.7-3.8V15.8
		C42.3,15.7,42.3,15.6,42.3,15.6z M11.5,15.3h28.1c0,0,0,0,0,0L25,26.9L10.5,15.3C10.8,15.3,11.2,15.3,11.5,15.3z M39.6,34.7H11.5
		c-0.6,0-1.6-1-1.6-1.6V17.6l14.4,11.5c0.2,0.2,0.5,0.3,0.7,0.3c0.3,0,0.5-0.1,0.7-0.3l14.4-11.5v15.5
		C40.1,33.7,40.2,34.7,39.6,34.7z"/>
</g>
</svg>
