<?xml version="1.0" encoding="utf-8"?>
<!-- Generator: Adobe Illustrator 19.2.1, SVG Export Plug-In . SVG Version: 6.00 Build 0)  -->
<svg version="1.1" id="レイヤー_1" xmlns="http://www.w3.org/2000/svg" xmlns:xlink="http://www.w3.org/1999/xlink" x="0px"
	 y="0px" viewBox="0 0 50 50" style="enable-background:new 0 0 50 50;" xml:space="preserve">
<style type="text/css">
	.st0{fill:#FFFFFF;}
</style>
<g>
	<path class="st0" d="M25,42.7c-0.6,0-1-0.5-1-1v-5.9c0-0.6,0.5-1,1-1s1,0.5,1,1v5.9C26,42.3,25.6,42.7,25,42.7z"/>
	<path class="st0" d="M34.1,36.6H15.9c-0.4,0-0.7-0.2-0.9-0.5c-0.2-0.3-0.2-0.7,0-1.1l3-5.2h-1.6c-0.4,0-0.7-0.2-0.9-0.5
		s-0.2-0.7,0-1l2.7-4.7h-1.4c-0.4,0-0.7-0.2-0.9-0.5c-0.2-0.3-0.2-0.7,0-1.1l8.2-14.1c0.2-0.3,0.5-0.5,0.9-0.5s0.7,0.2,0.9,0.5
		l8.2,14.1c0.2,0.3,0.2,0.7,0,1.1c-0.2,0.3-0.5,0.5-0.9,0.5h-1.4l2.7,4.7c0.2,0.3,0.2,0.7,0,1s-0.5,0.5-0.9,0.5h-1.6l3,5.2
		c0.2,0.3,0.2,0.7,0,1.1C34.8,36.4,34.5,36.6,34.1,36.6z M17.7,34.5h14.6l-3-5.2c-0.2-0.3-0.2-0.7,0-1c0.2-0.3,0.5-0.5,0.9-0.5h1.6
		L29.1,23c-0.2-0.3-0.2-0.7,0-1.1c0.2-0.3,0.5-0.5,0.9-0.5h1.4l-6.3-11l-6.3,11H20c0.4,0,0.7,0.2,0.9,0.5c0.2,0.3,0.2,0.7,0,1.1
		l-2.7,4.7h1.6c0.4,0,0.7,0.2,0.9,0.5c0.2,0.3,0.2,0.7,0,1L17.7,34.5z"/>
</g>
</svg>
