<?xml version="1.0" encoding="utf-8"?>
<!-- Generator: Adobe Illustrator 19.2.1, SVG Export Plug-In . SVG Version: 6.00 Build 0)  -->
<svg version="1.1" id="レイヤー_1" xmlns="http://www.w3.org/2000/svg" xmlns:xlink="http://www.w3.org/1999/xlink" x="0px"
	 y="0px" viewBox="0 0 50 50" style="enable-background:new 0 0 50 50;" xml:space="preserve">
<style type="text/css">
	.st0{fill:#FFFFFF;}
</style>
<g id="Bubble">
	<path class="st0" d="M25,9.7c-9.7,0-17.5,5.9-17.5,13.1c0,4.5,2.7,8.4,7.3,10.8c0,0,0,0,0,0.1c0,2-1.1,4.1-1.7,5.2h0
		C13,39.1,13,39.2,13,39.3c0,0.6,0.4,1,1,1c0.1,0,0.2,0,0.3,0c0,0,0,0,0,0c3.4-0.6,7.2-3.6,7.9-4.5c0.8,0.1,1.3,0.1,1.9,0.1
		c0.3,0,0.6,0,0.9,0c9.7,0,17.5-5.9,17.5-13.1C42.5,15.6,34.7,9.7,25,9.7z M25,33.8l-0.5,0l-0.4,0c-0.6,0-1,0-1.6-0.1l-1.2-0.2
		l-0.8,1c-0.4,0.4-2.2,2-4.2,2.9c0.4-1.1,0.7-2.3,0.7-3.5l0-0.1v-0.2v-1.3l-1.2-0.6c-3.9-2-6.1-5.2-6.1-8.9c0-6,6.9-10.9,15.3-10.9
		c8.4,0,15.3,4.9,15.3,10.9C40.3,28.8,33.4,33.8,25,33.8z"/>
</g>
</svg>
