<?xml version="1.0" encoding="utf-8"?>
<!-- Generator: Adobe Illustrator 19.2.1, SVG Export Plug-In . SVG Version: 6.00 Build 0)  -->
<svg version="1.1" id="レイヤー_1" xmlns="http://www.w3.org/2000/svg" xmlns:xlink="http://www.w3.org/1999/xlink" x="0px"
	 y="0px" viewBox="0 0 50 50" style="enable-background:new 0 0 50 50;" xml:space="preserve">
<style type="text/css">
	.st0{fill:#FFFFFF;}
</style>
<g>
	<path class="st0" d="M25.1,7.7C18,7.7,12,13.8,12,20.9c0,7.5,7,15.1,11.6,20.5c0,0,0.8,0.9,1.7,0.9c0,0,0.1,0,0.1,0
		c0.9,0,1.7-0.8,1.7-0.9c4.4-5,10.8-13.4,10.8-20.5C38,13.8,33.3,7.7,25.1,7.7z M25.6,40c0,0-0.1,0.1-0.1,0.1c0,0-0.1-0.1-0.1-0.1
		l-0.6-0.6c-4.4-5.1-10.5-12.1-10.5-18.4c0-6,5-11,10.9-11c7.4,0,10.7,5.5,10.7,11C35.8,25.7,32.4,32.1,25.6,40z"/>
	<path class="st0" d="M25,16.8c-2.1,0-3.9,1.7-3.9,3.9c0,2.1,1.8,3.9,3.9,3.9c2.1,0,3.8-1.8,3.8-3.9C28.8,18.6,27.1,16.8,25,16.8z"
		/>
</g>
</svg>
