<?xml version="1.0" encoding="utf-8"?>
<!-- Generator: Adobe Illustrator 19.2.1, SVG Export Plug-In . SVG Version: 6.00 Build 0)  -->
<svg version="1.1" id="レイヤー_1" xmlns="http://www.w3.org/2000/svg" xmlns:xlink="http://www.w3.org/1999/xlink" x="0px"
	 y="0px" viewBox="0 0 490 470" style="enable-background:new 0 0 490 470;" xml:space="preserve">
<style type="text/css">
	.st0{fill-rule:evenodd;clip-rule:evenodd;fill:#FFFFFF;}
	.st1{fill:#FFFFFF;}
</style>
<g>
	<g>
		<g>
			<g>
				<path class="st0" d="M234.2,221.1c-2.5,0-4.9,0-7.4,0c-2.4,0-4.3-1-5.3-3.1c-4.3-8.9-8.5-17.9-12.7-26.9
					c-4-8.6-7.9-17.3-11.8-26c-3-6.7-5.9-13.5-8.9-20.2c-3.9-8.7-7.9-17.5-12-26.2c-0.4-0.9-1.5-1.9-2.2-2c-0.8,0-1.8,1.1-2.3,1.9
					c-5.7,9.8-11.1,19.8-17.1,29.5c-7.2,11.5-14.5,22.9-22.4,33.9c-7.5,10.6-15.8,20.7-23.7,31.1c-1.3,1.8-2.3,3.9-3.9,5.4
					c-1.2,1.1-3,2-4.6,2.1c-5.6,0.3-11.2,0.2-16.8,0.3c-2.6,0.1-5.3,0.4-7.9,0.4c-1.4,0-2.7-0.8-4-1.2c0.5-1.3,0.7-2.9,1.5-3.9
					c3.3-4.1,6.9-8,10.2-12.1c3.7-4.6,7.1-9.3,10.7-13.9c3.1-4,6.4-7.7,9.3-11.8c4.1-5.6,7.9-11.5,11.8-17.2
					c5.2-7.5,10.7-14.9,15.7-22.6c4.5-6.9,8.8-13.9,12.9-21.1c6.1-10.8,12.1-21.6,17.9-32.5c2.6-5,4.5-10.4,6.7-15.6
					c1.3-3,2.7-5.9,4.1-8.8c0.2-0.4,0.6-0.8,1-1.1c6.6-4.9,13.3-9.7,19.9-14.5c4.3-3.1,8.5-6.3,12.8-9.4c1-0.7,2.3-0.7,3.5-1.1
					c0.2,1.2,0.8,2.5,0.5,3.6c-2.3,6.9-4.8,13.7-7.3,20.5c-1.8,4.9-3.7,9.7-5.9,14.4c-2.2,4.6-4.8,9-7.1,13.5
					c-1.9,3.8-3.7,7.8-5.4,11.7c-1.5,3.5-0.3,6.8,1.2,9.9c2.8,5.8,5.6,11.6,8.3,17.5c4.2,9.1,8.4,18.2,12.4,27.3
					c4.4,10,8.6,20.1,13,30.2c0.2,0.5,0.3,1,0.6,1.3c0.7,0.7,1.6,1.2,2.4,1.8c0.4-0.9,1.2-1.8,1.2-2.7c0-7.8-0.3-15.5-0.3-23.3
					c-0.1-17.5,0-35.1-0.1-52.6c0-19.7-0.1-39.4-0.1-59.1c0-8.2,0-16.3-0.2-24.5c-0.1-3.3,1.4-5.7,3.8-7.6c6.2-4.6,12.4-9,18.7-13.4
					c0.7-0.5,1.5-1,2.3-1.3c2.5-1.1,3.9-0.2,3.8,2.5c-0.1,6.1-0.2,12.2-0.2,18.3c-0.1,22.9-0.1,45.7-0.2,68.6
					c-0.1,33.1-0.3,66.2-0.3,99.3c0,8.7,0.2,17.3,0.4,26c0.1,3.3-0.9,4.3-4.3,4.4c-2.1,0.1-4.1,0.4-6.1,0.5c-2.1,0.1-4.1,0-6.2,0
					C234.2,221.1,234.2,221.1,234.2,221.1z"/>
				<path class="st0" d="M287,70.7c0,16.1,0,32.1-0.1,48.2c0,2.2,0.9,3.1,2.8,3.4c1.8,0.2,3.7,0.3,5.6,0.3
					c12.3,0.1,24.6,0.1,36.9,0.1c2.4,0,4.9,0.2,7.3-0.1c2.1-0.3,3-1.6,1.8-3.8c-3.5-6.5-7-12.9-10.2-19.5c-2.7-5.4-4.9-11-7.3-16.6
					c-1.9-4.3-3.7-8.6-5.5-12.9c-2.4-6.1-4.7-12.2-7-18.3c-1-2.7-1.9-5.4-2.6-8.1c-0.3-1-0.1-2.5,0.5-3.2c0.4-0.4,2.1-0.2,2.9,0.2
					c7.7,3.8,15.3,7.5,22.9,11.5c3,1.6,4.8,3.9,5.9,7.6c2,6.9,5,13.4,7.7,20.1c1.9,4.7,3.8,9.4,6,14c2.4,5.1,4.9,10,7.6,14.9
					c6.4,11.6,12.7,23.2,19.4,34.6c4.5,7.7,9.5,15.1,14.6,22.4c6.7,9.5,13.6,18.9,20.7,28.1c3.2,4.2,6.9,8.2,10.5,12.1
					c2.9,3.2,3.4,5.9,1.8,9.6c-0.2,0.5-0.4,1.1-0.4,1.7c-0.1,2.6-1.8,3.7-4.1,3.7c-6.2,0.1-12.4,0.2-18.6,0.1c-0.9,0-2.1-1-2.7-1.8
					c-6.3-8.2-12.7-16.3-18.7-24.7c-4.2-5.9-7.7-12.3-11.6-18.4c-3-4.8-6.2-9.5-9.1-14.4c-4.5-7.8-8.9-15.7-13.3-23.6
					c-1.4-2.5-3.4-3.1-6.1-3c-8.5,0.2-16.9,0.1-25.4,0.1c-9.1-0.1-18.3-0.3-27.4-0.5c-3.5,0-4.6,1.1-4.6,4.6
					c0.1,25.8,0.3,51.6,0.5,77.3c0,3.9-1,4.9-4.8,4.9c-5.5,0-11-0.1-16.6-0.1c-4.9,0-5.8-1-5.8-5.7c0-20.5-0.1-41-0.1-61.4
					c-0.1-25.6-0.2-51.2-0.3-76.8c0-13,0.3-26,0.3-39c0-8.3-0.3-16.5-0.4-24.8c0-3.1-0.1-6.3,0.2-9.4c0.1-1.1,0.9-2.3,1.7-3.1
					c0.3-0.2,1.8,0.7,2.6,1.3c6.4,4.5,12.7,9.1,19.1,13.6c2.5,1.8,3.5,4.3,3.5,7.4C287,38.9,287.1,54.8,287,70.7
					C287.1,70.7,287,70.7,287,70.7z"/>
			</g>
			<g>
				<path class="st0" d="M416.8,354.7c0,2.6-0.6,5.3-1.5,7.9c-0.4,1.1-0.3,2.4-0.3,3.6c0.1,1.8,0.4,3.6,0.4,5.4
					c0,0.8-0.4,1.6-0.7,2.4c-0.7,2-1.3,3.9-2.1,5.8c-1.1,2.6-0.2,4.9,1,7.1c2.6,4.8,5.8,9.2,7.9,14.3c1.4,3.4,2.1,6.9,2.4,10.5
					c0.1,1.6-0.5,2.9-1.5,4c-2.2,2.4-4.5,4.7-6.7,7.1c-0.5,0.5-0.8,1.3-0.9,1.9c-0.3,2.4-0.4,4.8-0.5,7.2c-0.1,1.8,0.7,3.2,2.4,3.9
					c0.9,0.4,2,0.7,3,0.8c2.4,0.2,4.9,0.4,7.3,0.5c1.5,0.1,2.6,0.7,3.7,1.7c2.6,2.4,4.7,5.2,6.7,8.1c1.2,1.7,1.5,3.5,0.7,5.3
					c-1.5,3.1-2.9,6.4-6,8.4c-2.3,1.5-4.9,2.2-7.7,2.1c-2.7-0.1-5.4,0.1-8.2,0c-2,0-4-0.1-5.9-0.2c-2.2-0.1-4.4,0.1-6.5-0.2
					c-1.9-0.2-3.8-0.8-5.6-1.5c-2.8-1.1-5.3-2.8-7.6-4.9c-1.7-1.6-2.9-3.6-4-5.6c-0.2-0.4-0.5-0.8-0.9-1c-2-1.3-2.6-3.7-1.2-5.7
					c1.1-1.6,2.3-3.1,3.5-4.6c2.3-3.2,1.7-5.5-0.6-8.2c-1.8-2.1-4.3-3.2-6.9-4.1c-2.8-1-5.5-2.1-8.1-3.4c-2.9-1.5-5.7-3.2-8.4-4.8
					c-2.4-1.4-4.2-3.5-5.2-6.1c-0.9-2.2-1.1-4.6,0-6.8c0.4-0.7,1-1.5,1.7-1.9c1.1-0.6,2.4-1,3.6-1.4c0.9-0.3,1.9-0.5,2.8-0.6
					c3.8-0.6,7.6-1.2,11.5-1.8c1.1-0.2,2.2-0.3,3.2-0.6c1.9-0.6,3.8-1.2,5.7-1.9c1.6-0.6,3.2-1.3,4.9-1.8c1.5-0.4,1.9-1.7,2-2.8
					c0.3-2.9,0.6-5.8-0.4-8.7c-0.4-1.2-1.2-2.1-2.4-1.8c-2.3,0.4-4.6,0.9-6.9,1.6c-2.1,0.6-4.2,1.6-6.3,2.3
					c-0.9,0.3-1.9,0.5-2.9,0.7c-2.3,0.4-4.7,0.7-7,1.1c-0.9,0.1-1.8,0.1-2.7,0.2c-2,0.2-4,0.3-6,0.7c-1.1,0.2-2.2,0.7-3.2,1.3
					c-1.7,1-2.2,3.5-1.3,5.4c0.5,1,0.8,2.1,1,3.1c0.7,2.8-0.9,4.9-2.1,7.1c-0.9,1.7-1.5,3.5-1.9,5.4c-0.9,5.5-0.3,11-0.4,16.5
					c0,3.6,1.5,6.8,3.8,9.5c1.2,1.5,2.6,2.9,3.5,4.6c2.2,4.1,1.8,8.2-0.9,12c-0.5,0.7-1.3,1.1-2,1.5c-2.1,1.2-4.2,2.2-6.3,3.4
					c-1.7,0.9-3.3,2-5,3c-3.1,1.8-6.2,2.5-9.8,1.7c-2.6-0.6-4.7-1.8-6.7-3.5c-0.8-0.7-2-1.1-2.9-1.8c-1.1-0.8-2.3-1.6-3.3-2.5
					c-1.3-1.4-2.9-2.1-4.6-2.8c-1-0.4-2-0.9-2.8-1.6c-1.1-0.9-1.4-2.2-1.3-3.7c0.2-4.1,2.7-6.7,5.7-8.8c2.2-1.6,4.8-2.8,7.2-4.1
					c0.8-0.4,1.6-0.7,2.5-1c1.6-0.5,2.6-1.6,3-3.2c0.1-0.3-0.3-1-0.5-1c-1.9-0.5-3.7-0.9-5.6-1.1c-3.4-0.4-6.8-0.4-10.1-1.2
					c-2.2-0.5-4.2-2-4.9-4.4c-0.6-2-0.3-4,0.7-5.9c1.9-3.6,4.7-6.3,8.2-8.3c0.8-0.4,2-0.4,2.9-0.2c1.4,0.3,2.8,0.8,4.1,1.5
					c1.1,0.5,2,0.9,3,0.1c0.7-0.5,0.6-2.4,0-3.4c-1.2-1.9-1.7-4-1-6.2c0.4-1.3,1.2-2.5,2.1-3.6c2.9-3.3,5.7-6.7,9.4-9.2
					c0.8-0.5,1.5-1.2,2.3-1.7c1.3-1,1.6-2.7,0.6-4c-1.3-1.7-2-3.6-1.5-5.7c0.2-0.9,0.7-1.8,1.2-2.7c0.4-0.8,1.1-1.5,1.5-2.3
					c0.9-1.7,0.5-3-1.1-4.1c-1.7-1.1-2.8-2.7-3.4-4.5c-0.7-2.1-0.6-4.4,0.4-6.5c1.5-3.1,3.9-5.4,6.5-7.4c1.4-1.1,2.9-2.1,4.4-3.3
					c1.2-0.9,2.5-1.3,3.9-1.3c2.9,0,5.6,0.8,7.9,2.6c1.7,1.3,3.4,2.7,4.8,4.2c1.3,1.4,2.5,3.1,3.5,4.7c1.7,2.6,3.4,3,6.3,1.9
					c1.7-0.6,3.3-1.4,4.8-2.5c1.9-1.4,2.9-3.5,3.9-5.6c1.2-2.5,2.4-4.9,3.5-7.4c0.6-1.4,1-2.9,2.3-4c1.9-1.7,4-2.9,6.5-3.4
					c0.9-0.2,1.8-0.6,2.8-0.8c1.8-0.2,3.6-0.7,5.3-0.5c3.2,0.4,5.7,2,6.8,5.3c0.7,2,1.2,4.1,2,6.1
					C416.1,348,416.6,351.2,416.8,354.7z"/>
				<path class="st0" d="M114.5,462.4c-3,0.3-6.1,0.3-9,1c-3.7,0.9-6.6-0.9-9.7-2.3c-1.5-0.7-3-1.3-4.6-1.7
					c-3.3-0.8-6.5-1.6-9.4-3.5c-3.6-2.3-6.3-5.3-8.3-9c-2.2-4-4.5-7.9-6.6-12c-0.8-1.5-1.2-3.2-1.7-4.9c-0.6-1.8-1-3.8-1.7-5.5
					c-1.1-2.5-0.7-4.7,0.7-6.9c1.4-2.2,2.4-4.6,3.6-6.9c1.1-2.1,1.8-4.4,3.4-6.3c0.8-0.9,1.4-1.8,2.6-1.9c1-0.1,2.1,0.2,3.1,0.5
					c3.7,1.3,6.4,3.8,8.7,6.9c0.4,0.6,0.7,1.2,0.9,1.9c0.5,2,0.8,4.1,1.3,6.1c0.3,1.3,0.7,2.7,1.1,4c0.5,1.6,0.9,3.2,1.5,4.7
					c0.9,2.6,1.9,5.3,2.9,7.9c0.8,2,1.4,4.1,2.3,6c1.2,2.5,2.5,4.5,6,3.7c2.5-0.6,5.1-1,7.6-1.6c1.3-0.3,2.7-0.7,4-1.1
					c0.4-0.1,0.9-0.2,1.4-0.2c3.4,0.2,6.8,0.2,10.2,0.8c2.2,0.4,4.1,0.3,5.4-1.5c0.8-1,1.2-2.4,1.7-3.6c0.3-0.9,0.4-1.8,0.8-2.6
					c0.7-1.4,0.3-2.7,0-4c-0.2-0.9-0.9-1.2-1.7-0.9c-1.3,0.5-2.6,1-3.8,1.7c-2,1.3-4.2,2-6.5,2.4c-2.2,0.4-4.5,0.9-6.8,0.9
					c-4.1,0-8.2-0.6-11.9-2.6c-1.9-1-3.9-1.8-5.8-2.8c-1.1-0.5-1.5-1.9-0.9-3.1c1.7-3.6,4.4-6.3,7.4-8.7c1.9-1.5,4.1-2.6,6.5-3.2
					c3-0.8,6.1-1.7,9.2-1.5c1.7,0.1,3.4,0.6,5.1,0.9c3.2,0.5,5.3,2.8,7.5,5c0.7,0.7,1.5,1.1,2.5,0.8c1.2-0.3,2.1-0.9,2.2-2.3
					c0.2-3,0.4-6,0.6-9.1c0.1-0.9,0.2-1.8,0.3-2.7c0.3-3-0.5-4.3-3.5-4.5c-2.8-0.2-5.7,0.1-8.5,0.2c-2.1,0.1-4.2,0.1-6.3,0.4
					c-2.6,0.3-5.1,0.7-7.7,1.1c-1.9,0.3-3.8,0.5-5.6,0.8c-1.5,0.3-3,0.6-4.5,1c-1.3,0.4-2.6,0.7-3.8,1.3c-1.7,0.8-3.3,1.7-4.9,2.6
					c-1.1,0.6-2.4,0.4-3.1-0.5c-1-1.4-1.2-3.2-0.3-4.1c0.4-0.4,0.8-0.7,1.2-1.1c2.2-1.8,2-4.7-0.3-6.4c-1.9-1.4-3.8-2.9-5.6-4.4
					c-1.4-1.2-1.2-3-1.2-4.6c0.1-1.8,0.5-3.7,0.8-5.5c0.1-0.7,0.5-1.3,0.7-1.9c1.3-3,2.5-6.1,3.8-9.1c2.1-4.7,4.2-9.4,7.4-13.4
					c2.2-2.8,4.7-5.1,8.2-6.3c1.1-0.4,2.2-1,3.3-1.3c2.8-0.7,5,0.5,6.7,2.6c1.9,2.4,3.7,5.1,5.4,7.7c1,1.5,1.8,3.2,2.6,4.8
					c0.8,1.6,1.4,3.2,2,4.9c0.5,1.2,0.8,2.4,1.3,3.5c0.1,0.3,0.4,0.6,0.7,0.6c0.8,0.2,1.7,0.3,2.5,0.3c3.8,0.1,7.7,0.1,11.5,0.3
					c1.5,0.1,3.1,0.6,4.6,1.1c1.9,0.6,3.7,1.2,5.5,1.9c2.4,0.9,4.2,2.6,5.9,4.4c1.6,1.7,3.1,3.4,4.8,5.1c2.4,2.5,4.9,4.9,7.4,7.3
					c2.7,2.7,3.7,6,3.1,9.8c-0.4,2.6-2.4,4-4.6,5c-1.3,0.6-1.9,1.5-2.1,2.9c-0.6,2.9-1.4,5.7-2.2,8.5c-0.5,2-0.9,4-1.5,6
					c-0.9,3-2,6-3,9c-0.5,1.4-0.9,2.8-1.5,4.2c-0.8,2.2-1.7,4.4-2.5,6.6c-0.8,2.2-1.3,4.4-2.2,6.5c-1.2,2.6-2.7,5-4,7.6
					c-0.9,1.7-2,3.1-3.5,4.2c-2,1.4-4.1,1.2-6.2,0.6c-2.1-0.6-4.1-1.7-6.2-2.4c-1-0.4-2.2-0.6-3.2-0.6c-4.5,0.1-8.9,0.3-13.4,0.5
					C114.5,462.5,114.5,462.4,114.5,462.4z"/>
				<path class="st0" d="M253.8,389c0,0.3,0,0.5,0,0.8c-0.4,3,0.8,5.6,2.3,8.1c1.1,1.8,2.2,3.6,3.1,5.6c1.5,3.2,0.7,5.6-2.3,7.6
					c-1.4,0.9-2.8,2-4.3,2.8c-2.4,1.2-4.8,2.3-7.6,2.4c-2.5,0.1-5,0.6-7.5,0.6c-2.9,0-5.9-0.2-8.8-0.6c-2.2-0.3-4.3-1-6-2.6
					c-1.3-1.2-2.8-2.2-4.2-3.3c-1.3-1.2-2.1-2.2-0.5-4c1.2-1.4,2.1-3.2,2.3-5c0.1-1.2-0.1-2.6-0.6-3.6c-1.1-1.9-2-3.8-1.7-6
					c0-0.4,0-0.8,0-1.2c0.2-1.5-1.1-2.6-2.9-2.1c-2.6,0.8-4.4,3.4-4.5,6.1c-0.1,3.6-0.2,7.3-0.6,10.9c-0.5,3.8-2.9,6.2-6.5,7.6
					c-3.4,1.4-7,1.4-10.6,1.2c-2.8-0.2-5.6-1.4-6-4.8c-0.2-1.5,0.4-3,0.7-4.5c0.3-1.5,0.7-2.9,1.1-4.4c0.2-0.8,0.5-1.5,0.7-2.3
					c1.2-3.9,2.3-7.8,3.7-11.7c1.1-3.3,2.5-6.5,3.9-9.7c0.8-2,1.6-3.9,2.6-5.8c1.3-2.5,4.5-1.9,5.7-0.2c0.8,1.1,1.5,2.2,2.2,3.4
					c1,1.5,2.8,3,5.3,2.1c3.8-1.4,7.8-2.4,11.8-2.8c3.5-0.4,6.9-0.8,10.4-1.2c1.8-0.2,3.3-1.4,3.4-2.7c0.1-1.3-1.5-2.9-3.2-3.3
					c-2.1-0.4-4.2-0.7-6.2-1.3c-2.9-0.9-5.5-2.4-6.7-5.4c-0.6-1.5-0.1-3,1-4.3c2.5-3,6-4.5,9.4-6.3c2.5-1.3,5.1-2.5,7.8-3.7
					c1.2-0.5,2.5-0.8,3.8-0.9c2.6-0.2,5.2-0.2,7.7,0.7c1.7,0.6,3.3,1.6,4.8,2.6c2.8,1.7,5.3,3.8,7.6,6.1c2.6,2.6,2.5,5.4,0.8,8.4
					c-0.4,0.7-0.7,1.5-0.6,2.2c0.2,1.2,1.2,1.8,2.6,1.7c1.5,0,2.9-0.3,4.4-0.4c4.9-0.1,9.8-0.5,14.5,0.7c2.8,0.7,5.5,1.6,8.1,2.8
					c2.5,1.1,5,2.5,7.3,4c2.7,1.8,5.3,3.8,7.9,5.8c0.6,0.5,1,1.3,1.3,2c0.4,1.2,0,2-1,2.8c-1.6,1.3-3.5,1.8-5.3,2.4
					c-3.3,1-6.8,1.8-10.1,2.7c-1.1,0.3-2.2,0.8-3.2,1.1c-3.2,1.1-7.3-1.6-7.5-5c-0.1-1.1,0-2.2,0.1-3.3c0.2-2.2-0.7-3.3-3-3.3
					c-1.4,0-2.8-0.4-4.1,0.5c-1.7,1-2,2.2-0.8,3.7c1.1,1.4,2.2,2.8,3.2,4.3c1.6,2.4,1.8,5.1,1.1,7.9c-0.2,0.8-0.5,1.7-0.8,2.5
					c-1.2,2.5-3.6,2.9-5.3,2.5c-1.4-0.3-2.7-1-4-1.4c-1.5-0.5-3.1-1.1-4.7-1.1c-2,0-3.7-0.8-5.3-1.7c-0.9-0.5-1.8-1.1-2.7-1.6
					c-0.6-0.4-0.7-0.9-0.2-1.5c0.5-0.7,1.1-1.5,1.6-2.3c1.1-1.7,0.6-3.7,0.7-5.6c0-0.8-0.2-1.6-0.6-2.3c-0.5-1.2-1.5-1.7-2.7-1.4
					c-1.1,0.2-1.5,1-1.6,2.1c-0.1,1.9-0.5,3.8-0.8,5.7C253.7,389,253.8,389,253.8,389z M233.8,399.3c0,1.9,0.4,2.5,1.5,2.8
					c1,0.3,2.1,0.6,3.1,1c0.9,0.4,1.5,0.1,2-0.5c0.9-1.3,1.1-2.7,0.5-4.2c-0.5-1.4-1.3-2.7-0.6-4.3c0.1-0.3,0-0.8,0-1.1
					c-0.1-0.7-0.3-1.4-0.3-2.2c0-2.2,0.1-4.3,0-6.5c0-1.4-1.7-2.4-3.1-2c-1.9,0.6-3.7,3.5-3.6,5.8c0.1,2.2,0.5,4.4,2,6.2
					c0.6,0.8,0.5,1.3-0.1,2C234.3,397.2,233.5,398.1,233.8,399.3z"/>
				<path class="st0" d="M264.8,445.3c3.3-0.5,6.8,0.3,10.3,1.3c4.7,1.3,8.9,3.5,12,7.5c0.8,1.1,1.6,2.3,2.3,3.5
					c0.6,1.1-0.4,3.2-1.8,3.9c-2.3,1.1-4.5,2.2-6.8,3.3c-3.2,1.5-6.5,2.9-9.7,4.3c-2,0.9-6.2-0.4-7.1-2.4c-0.4-1-0.4-2.2-0.4-3.3
					c0.1-2.3-0.9-3.3-3.2-2.9c-1.5,0.3-3,0.6-4.5,0.8c-2,0.3-4,0.5-6,0.9c-2.7,0.5-5.4,1.3-8.1,1.8c-2.2,0.4-4.5,0.7-6.7,1.1
					c-2.6,0.5-5.1-0.2-7.6-0.9c-4.6-1.2-8.2-3.9-11.2-7.6c-0.5-0.6-1.1-1.2-1.2-1.9c-0.1-0.7,0.2-1.6,0.4-2.4c0-0.2,0.2-0.3,0.3-0.5
					c1.5-2.3,0.7-3.8-2-4.7c-3.1-0.9-6.1-2.2-8.2-4.9c-1.4-1.7-1.3-5.5,1-7.1c1-0.7,2.1-1.1,3.2-1.5c2.5-0.9,5.1-1.6,7.6-2.4
					c2.3-0.7,4.6-1.3,6.8-2.2c3.3-1.3,6.5-2.7,9.8-4c3.2-1.3,6.1-3.3,9.6-4.1c2.5-0.6,5-0.5,7.5,0.7c3.9,1.8,7.1,4.4,10.2,7.2
					c0.9,0.8,1.7,1.7,2.4,2.6c2.2,2.6,1.9,5.3-1.1,7.3c-1.3,0.9-2.7,1.7-3.9,2.7c-0.8,0.6-2.1,1.4-1.5,2.4c0.4,0.7,1.7,1.2,2.7,1.3
					C261.4,445.5,262.9,445.3,264.8,445.3z"/>
			</g>
			<g>
				<path class="st1" d="M19.2,296.7L5.9,276.2v16.4c0,0.6,0.1,1,0.2,1.3c0.2,0.3,0.4,0.6,0.6,0.8c0.3,0.2,0.6,0.3,0.9,0.4
					c0.4,0.1,0.7,0.1,1.1,0.1h0.5v1.5H0.3v-1.5h0.5c0.4,0,0.8,0,1.1-0.1c0.4-0.1,0.7-0.2,0.9-0.4c0.3-0.2,0.5-0.4,0.6-0.8
					c0.1-0.3,0.2-0.8,0.2-1.3v-17.4c0-0.5-0.1-0.9-0.2-1.3c-0.2-0.3-0.4-0.6-0.6-0.7c-0.3-0.2-0.6-0.3-0.9-0.3
					c-0.4-0.1-0.7-0.1-1.1-0.1H0.3v-1.5h6.5l12.7,19.6v-15.7c0-0.5-0.1-0.9-0.2-1.3c-0.2-0.3-0.4-0.6-0.6-0.7
					c-0.3-0.2-0.6-0.3-0.9-0.3c-0.4-0.1-0.7-0.1-1.1-0.1h-0.5v-1.5h8.9v1.5h-0.5c-0.4,0-0.8,0-1.1,0.1c-0.4,0.1-0.7,0.2-0.9,0.4
					s-0.5,0.4-0.6,0.8c-0.2,0.3-0.2,0.8-0.2,1.3v21.3H19.2z"/>
				<path class="st1" d="M38.1,296.7v-1.5h0.5c0.4,0,0.8,0,1.1-0.1c0.4-0.1,0.7-0.2,0.9-0.4c0.3-0.2,0.5-0.4,0.6-0.8
					c0.1-0.3,0.2-0.8,0.2-1.3v-17.3c0-0.6-0.1-1-0.2-1.3c-0.2-0.3-0.4-0.6-0.6-0.8s-0.6-0.3-0.9-0.4c-0.4-0.1-0.7-0.1-1.1-0.1h-0.5
					v-1.5h10.3v1.5h-0.5c-0.4,0-0.8,0-1.1,0.1c-0.4,0.1-0.7,0.2-0.9,0.4c-0.3,0.2-0.5,0.4-0.6,0.8c-0.2,0.3-0.2,0.8-0.2,1.3v17.3
					c0,0.6,0.1,1,0.2,1.3s0.4,0.6,0.6,0.8c0.3,0.2,0.6,0.3,0.9,0.4c0.4,0.1,0.7,0.1,1.1,0.1h0.5v1.5H38.1z"/>
				<path class="st1" d="M69.2,297c-1.2,0-2.2-0.1-3.1-0.4c-0.9-0.2-1.6-0.6-2.2-1s-1-1-1.3-1.6s-0.5-1.3-0.5-2
					c0-0.7,0.2-1.3,0.7-1.7c0.4-0.4,1.1-0.7,1.9-0.7c0,0.7,0.1,1.5,0.3,2.1c0.2,0.7,0.5,1.3,0.9,1.8c0.4,0.5,0.9,0.9,1.5,1.2
					s1.3,0.5,2.1,0.5c1.6,0,2.8-0.4,3.7-1.2c0.9-0.8,1.3-1.9,1.3-3.3c0-0.6-0.1-1.2-0.3-1.7c-0.2-0.5-0.5-1-0.9-1.4
					c-0.4-0.4-1-0.8-1.7-1.2s-1.6-0.8-2.6-1.2c-1.1-0.5-2.1-0.9-2.9-1.4c-0.8-0.5-1.5-1.1-2-1.7c-0.5-0.6-0.9-1.3-1.2-2.1
					s-0.4-1.6-0.4-2.6c0-1,0.2-1.9,0.6-2.7c0.4-0.8,0.9-1.5,1.6-2c0.7-0.5,1.5-1,2.5-1.3c0.9-0.3,2-0.4,3.1-0.4c1.1,0,2,0.1,2.8,0.3
					c0.8,0.2,1.5,0.5,2.1,0.9c0.6,0.4,1,0.8,1.3,1.3c0.3,0.5,0.4,1,0.4,1.5c0,0.8-0.3,1.3-0.8,1.7c-0.5,0.4-1.2,0.6-2,0.6
					c0-0.6-0.1-1.1-0.2-1.6s-0.4-1-0.7-1.4c-0.3-0.4-0.7-0.8-1.2-1c-0.5-0.3-1.1-0.4-1.9-0.4c-0.7,0-1.3,0.1-1.8,0.3
					c-0.5,0.2-1,0.5-1.4,0.8s-0.7,0.8-0.8,1.3c-0.2,0.5-0.3,1.1-0.3,1.7c0,0.7,0.1,1.3,0.3,1.9c0.2,0.5,0.5,1,0.9,1.5
					c0.4,0.4,1,0.8,1.7,1.2c0.7,0.4,1.6,0.8,2.6,1.2c1,0.4,2,0.9,2.8,1.4s1.5,1,2.1,1.6c0.6,0.6,1,1.2,1.3,2
					c0.3,0.7,0.5,1.5,0.5,2.5c0,1.1-0.2,2.1-0.6,3s-1,1.6-1.8,2.2c-0.8,0.6-1.7,1.1-2.8,1.4C71.7,296.9,70.5,297,69.2,297z"/>
				<path class="st1" d="M98.7,294.9h6.8c0.6,0,1-0.1,1.4-0.2c0.4-0.2,0.7-0.4,1-0.6c0.3-0.3,0.5-0.6,0.6-0.9
					c0.1-0.4,0.3-0.7,0.3-1.1l0.2-1.5h1.9l-0.2,6.2h-19v-1.5h0.5c0.4,0,0.8,0,1.1-0.1c0.4-0.1,0.7-0.2,0.9-0.3
					c0.3-0.2,0.5-0.4,0.6-0.7c0.2-0.3,0.2-0.7,0.2-1.3v-17.4c0-0.6-0.1-1-0.2-1.3c-0.2-0.3-0.4-0.6-0.6-0.8s-0.6-0.3-0.9-0.4
					c-0.4-0.1-0.7-0.1-1.1-0.1h-0.5v-1.5h17.9l0.2,6.2h-1.8l-0.2-1.5c0-0.4-0.1-0.8-0.3-1.1c-0.1-0.4-0.3-0.7-0.6-0.9
					c-0.2-0.3-0.6-0.5-0.9-0.6c-0.4-0.2-0.8-0.2-1.4-0.2h-6v9.4h8.6v1.7h-8.6V294.9z"/>
				<path class="st1" d="M138.8,277c0.4-0.4,0.7-0.8,1-1.2c0.3-0.3,0.5-0.6,0.6-0.9s0.2-0.5,0.3-0.7s0.1-0.4,0.1-0.6
					c0-0.3-0.1-0.5-0.4-0.6c-0.3-0.1-0.7-0.2-1.3-0.2v-1.5h7.9v1.5c-0.4,0-0.8,0.1-1.2,0.2c-0.4,0.2-0.8,0.4-1.1,0.7s-0.8,0.6-1.2,1
					c-0.4,0.4-0.8,0.9-1.3,1.4l-5.1,5.8l7.5,10.4c0.7,0.9,1.3,1.6,2,2.1c0.6,0.5,1.3,0.7,1.9,0.7h0.1v1.5H148c-1.2,0-2.2,0-2.9-0.1
					c-0.8-0.1-1.4-0.3-1.9-0.5c-0.5-0.2-1-0.6-1.4-1c-0.4-0.4-0.8-0.9-1.2-1.6l-6.1-8.8l-3,2.4v5.5c0,0.6,0.1,1,0.2,1.3
					s0.4,0.6,0.6,0.8c0.3,0.2,0.6,0.3,0.9,0.4c0.4,0.1,0.7,0.1,1.1,0.1h0.5v1.5h-10.3v-1.5h0.5c0.4,0,0.8,0,1.1-0.1
					c0.4-0.1,0.7-0.2,0.9-0.3c0.3-0.2,0.5-0.4,0.6-0.7c0.2-0.3,0.2-0.7,0.2-1.3v-17.6c0-0.5-0.1-0.9-0.2-1.3
					c-0.2-0.3-0.4-0.6-0.6-0.7c-0.3-0.2-0.6-0.3-0.9-0.3c-0.4-0.1-0.7-0.1-1.1-0.1h-0.5v-1.5h10.3v1.5h-0.5c-0.4,0-0.8,0-1.1,0.1
					c-0.4,0.1-0.7,0.2-0.9,0.4c-0.3,0.2-0.5,0.4-0.6,0.8c-0.2,0.3-0.2,0.8-0.2,1.3v10L138.8,277z"/>
				<path class="st1" d="M182.9,284c0,2-0.2,3.7-0.7,5.3s-1.2,3-2.1,4.1c-0.9,1.1-2.1,2-3.5,2.7c-1.4,0.6-3,0.9-4.8,0.9
					c-1.9,0-3.5-0.3-4.9-0.9s-2.6-1.5-3.5-2.7c-0.9-1.1-1.6-2.5-2.1-4.1c-0.5-1.6-0.7-3.4-0.7-5.4s0.2-3.7,0.7-5.3
					c0.5-1.6,1.2-3,2.1-4.1c0.9-1.1,2.1-2,3.5-2.6s3.1-0.9,4.9-0.9c1.8,0,3.4,0.3,4.7,0.9s2.5,1.5,3.5,2.6c0.9,1.1,1.7,2.5,2.1,4.1
					C182.7,280.2,182.9,282,182.9,284z M164.6,284c0,1.8,0.1,3.3,0.4,4.7c0.3,1.4,0.7,2.5,1.3,3.5s1.3,1.7,2.2,2.2
					c0.9,0.5,2,0.8,3.4,0.8c1.3,0,2.4-0.3,3.4-0.8c0.9-0.5,1.7-1.2,2.2-2.2c0.6-1,1-2.1,1.2-3.5c0.3-1.4,0.4-2.9,0.4-4.7
					s-0.1-3.3-0.4-4.7c-0.3-1.4-0.7-2.5-1.2-3.5c-0.6-0.9-1.3-1.7-2.2-2.2c-0.9-0.5-2-0.7-3.3-0.7c-1.3,0-2.4,0.2-3.4,0.7
					c-0.9,0.5-1.7,1.2-2.3,2.2c-0.6,0.9-1,2.1-1.3,3.5C164.7,280.6,164.6,282.2,164.6,284z"/>
				<path class="st1" d="M232,296.7v-1.5h0.5c0.4,0,0.8,0,1.1-0.1c0.4-0.1,0.7-0.2,0.9-0.4c0.3-0.2,0.5-0.4,0.6-0.8
					c0.2-0.3,0.2-0.8,0.2-1.3v-8.3h-11.5v8.3c0,0.6,0.1,1,0.2,1.3s0.4,0.6,0.6,0.8c0.3,0.2,0.6,0.3,0.9,0.4c0.4,0.1,0.7,0.1,1.1,0.1
					h0.5v1.5h-10.3v-1.5h0.5c0.4,0,0.8,0,1.1-0.1c0.4-0.1,0.7-0.2,0.9-0.4c0.3-0.2,0.5-0.4,0.6-0.8c0.1-0.3,0.2-0.8,0.2-1.3v-17.4
					c0-0.5-0.1-0.9-0.2-1.3c-0.2-0.3-0.4-0.6-0.6-0.7c-0.3-0.2-0.6-0.3-0.9-0.3c-0.4-0.1-0.7-0.1-1.1-0.1h-0.5v-1.5h10.3v1.5h-0.5
					c-0.4,0-0.8,0-1.1,0.1c-0.4,0.1-0.7,0.2-0.9,0.4c-0.3,0.2-0.5,0.4-0.6,0.8c-0.2,0.3-0.2,0.8-0.2,1.3v7.2h11.5v-7.2
					c0-0.6-0.1-1-0.2-1.3c-0.2-0.3-0.4-0.6-0.6-0.8c-0.3-0.2-0.6-0.3-0.9-0.4c-0.4-0.1-0.7-0.1-1.1-0.1H232v-1.5h10.3v1.5h-0.5
					c-0.4,0-0.8,0-1.1,0.1c-0.4,0.1-0.7,0.2-0.9,0.4c-0.3,0.2-0.5,0.4-0.6,0.8c-0.2,0.3-0.2,0.8-0.2,1.3v17.4c0,0.5,0.1,0.9,0.2,1.3
					c0.2,0.3,0.4,0.6,0.6,0.7c0.3,0.2,0.6,0.3,0.9,0.3c0.4,0.1,0.7,0.1,1.1,0.1h0.5v1.5H232z"/>
				<path class="st1" d="M261.5,288.2l-1.4,3.7c-0.1,0.3-0.2,0.6-0.2,0.8s-0.1,0.5-0.1,0.7c0,0.6,0.2,1,0.6,1.3
					c0.4,0.3,1,0.4,1.8,0.4h0.8v1.5h-8.7v-1.5h0.7c0.3,0,0.6,0,0.9-0.1c0.2-0.1,0.5-0.2,0.7-0.4s0.4-0.5,0.6-0.8
					c0.2-0.4,0.4-0.8,0.6-1.4l7.9-21.1h2.8l8,22c0.1,0.4,0.3,0.7,0.4,0.9s0.3,0.4,0.5,0.6c0.2,0.1,0.4,0.2,0.7,0.3
					c0.3,0.1,0.6,0.1,0.9,0.1h0.5v1.5h-9.8v-1.5h0.8c1.4,0,2.1-0.6,2.1-1.7c0-0.2,0-0.4-0.1-0.6c-0.1-0.2-0.1-0.4-0.2-0.7l-1.4-4
					H261.5z M267.9,280.2c-0.4-1.1-0.7-2-1-3c-0.3-0.9-0.6-1.8-0.8-2.7c-0.1,0.4-0.2,0.8-0.3,1.2s-0.2,0.8-0.4,1.2
					c-0.1,0.4-0.3,0.9-0.4,1.3c-0.2,0.5-0.3,1-0.6,1.5l-2.4,6.5h8L267.9,280.2z"/>
				<path class="st1" d="M305.6,277c0.4-0.4,0.7-0.8,1-1.2c0.3-0.3,0.5-0.6,0.6-0.9s0.2-0.5,0.3-0.7s0.1-0.4,0.1-0.6
					c0-0.3-0.1-0.5-0.4-0.6c-0.3-0.1-0.7-0.2-1.3-0.2v-1.5h7.9v1.5c-0.4,0-0.8,0.1-1.2,0.2c-0.4,0.2-0.8,0.4-1.1,0.7s-0.8,0.6-1.2,1
					c-0.4,0.4-0.8,0.9-1.3,1.4l-5.1,5.8l7.5,10.4c0.7,0.9,1.3,1.6,2,2.1c0.6,0.5,1.3,0.7,1.9,0.7h0.1v1.5h-0.4c-1.2,0-2.2,0-2.9-0.1
					c-0.8-0.1-1.4-0.3-1.9-0.5c-0.5-0.2-1-0.6-1.4-1c-0.4-0.4-0.8-0.9-1.2-1.6l-6.1-8.8l-3,2.4v5.5c0,0.6,0.1,1,0.2,1.3
					s0.4,0.6,0.6,0.8c0.3,0.2,0.6,0.3,0.9,0.4c0.4,0.1,0.7,0.1,1.1,0.1h0.5v1.5h-10.3v-1.5h0.5c0.4,0,0.8,0,1.1-0.1
					c0.4-0.1,0.7-0.2,0.9-0.3c0.3-0.2,0.5-0.4,0.6-0.7c0.2-0.3,0.2-0.7,0.2-1.3v-17.6c0-0.5-0.1-0.9-0.2-1.3
					c-0.2-0.3-0.4-0.6-0.6-0.7c-0.3-0.2-0.6-0.3-0.9-0.3c-0.4-0.1-0.7-0.1-1.1-0.1h-0.5v-1.5h10.3v1.5h-0.5c-0.4,0-0.8,0-1.1,0.1
					c-0.4,0.1-0.7,0.2-0.9,0.4c-0.3,0.2-0.5,0.4-0.6,0.8c-0.2,0.3-0.2,0.8-0.2,1.3v10L305.6,277z"/>
				<path class="st1" d="M338.3,297c-1.4,0-2.7-0.1-3.8-0.4c-1.1-0.3-2-0.8-2.8-1.4c-0.8-0.6-1.4-1.5-1.8-2.5
					c-0.4-1-0.6-2.2-0.6-3.7v-13.8c0-0.5-0.1-0.9-0.2-1.3c-0.2-0.3-0.4-0.6-0.6-0.7c-0.3-0.2-0.6-0.3-0.9-0.3
					c-0.4-0.1-0.7-0.1-1.1-0.1H326v-1.5h10.3v1.5h-0.5c-0.4,0-0.8,0-1.1,0.1c-0.4,0.1-0.7,0.2-0.9,0.4c-0.3,0.2-0.5,0.4-0.6,0.8
					c-0.2,0.3-0.2,0.8-0.2,1.3v13.8c0,1,0.1,1.9,0.4,2.6c0.3,0.7,0.7,1.3,1.2,1.8c0.5,0.5,1.1,0.8,1.9,1s1.5,0.3,2.4,0.3
					c1,0,1.9-0.1,2.7-0.4s1.4-0.7,1.9-1.2c0.5-0.5,0.9-1.1,1.1-1.8c0.2-0.7,0.4-1.4,0.4-2.2v-14.1c0-0.5-0.1-0.9-0.2-1.3
					c-0.2-0.3-0.4-0.6-0.6-0.7c-0.3-0.2-0.6-0.3-0.9-0.3c-0.4-0.1-0.7-0.1-1.1-0.1h-0.5v-1.5h8.9v1.5h-0.5c-0.4,0-0.8,0-1.1,0.1
					c-0.4,0.1-0.7,0.2-0.9,0.4c-0.3,0.2-0.5,0.4-0.6,0.8c-0.2,0.3-0.2,0.8-0.2,1.3v14.1c0,1.2-0.2,2.2-0.6,3.2
					c-0.4,0.9-0.9,1.7-1.7,2.4c-0.7,0.7-1.6,1.2-2.7,1.5S339.7,297,338.3,297z"/>
				<path class="st1" d="M374.4,297c-1.4,0-2.7-0.1-3.8-0.4c-1.1-0.3-2-0.8-2.8-1.4c-0.8-0.6-1.4-1.5-1.8-2.5
					c-0.4-1-0.6-2.2-0.6-3.7v-13.8c0-0.5-0.1-0.9-0.2-1.3c-0.2-0.3-0.4-0.6-0.6-0.7c-0.3-0.2-0.6-0.3-0.9-0.3
					c-0.4-0.1-0.7-0.1-1.1-0.1h-0.5v-1.5h10.3v1.5H372c-0.4,0-0.8,0-1.1,0.1c-0.4,0.1-0.7,0.2-0.9,0.4c-0.3,0.2-0.5,0.4-0.6,0.8
					c-0.2,0.3-0.2,0.8-0.2,1.3v13.8c0,1,0.1,1.9,0.4,2.6c0.3,0.7,0.7,1.3,1.2,1.8c0.5,0.5,1.1,0.8,1.9,1s1.5,0.3,2.4,0.3
					c1,0,1.9-0.1,2.7-0.4s1.4-0.7,1.9-1.2c0.5-0.5,0.9-1.1,1.1-1.8c0.2-0.7,0.4-1.4,0.4-2.2v-14.1c0-0.5-0.1-0.9-0.2-1.3
					c-0.2-0.3-0.4-0.6-0.6-0.7c-0.3-0.2-0.6-0.3-0.9-0.3c-0.4-0.1-0.7-0.1-1.1-0.1h-0.5v-1.5h8.9v1.5H386c-0.4,0-0.8,0-1.1,0.1
					c-0.4,0.1-0.7,0.2-0.9,0.4c-0.3,0.2-0.5,0.4-0.6,0.8c-0.2,0.3-0.2,0.8-0.2,1.3v14.1c0,1.2-0.2,2.2-0.6,3.2
					c-0.4,0.9-0.9,1.7-1.7,2.4c-0.7,0.7-1.6,1.2-2.7,1.5S375.8,297,374.4,297z"/>
				<path class="st1" d="M417.8,296.7l-13.3-20.5v16.4c0,0.6,0.1,1,0.2,1.3c0.2,0.3,0.4,0.6,0.6,0.8c0.3,0.2,0.6,0.3,0.9,0.4
					c0.4,0.1,0.7,0.1,1.1,0.1h0.5v1.5H399v-1.5h0.5c0.4,0,0.8,0,1.1-0.1c0.4-0.1,0.7-0.2,0.9-0.4c0.3-0.2,0.5-0.4,0.6-0.8
					c0.1-0.3,0.2-0.8,0.2-1.3v-17.4c0-0.5-0.1-0.9-0.2-1.3c-0.2-0.3-0.4-0.6-0.6-0.7c-0.3-0.2-0.6-0.3-0.9-0.3
					c-0.4-0.1-0.7-0.1-1.1-0.1H399v-1.5h6.5l12.7,19.6v-15.7c0-0.5-0.1-0.9-0.2-1.3c-0.2-0.3-0.4-0.6-0.6-0.7
					c-0.3-0.2-0.6-0.3-0.9-0.3c-0.4-0.1-0.7-0.1-1.1-0.1h-0.5v-1.5h8.9v1.5h-0.5c-0.4,0-0.8,0-1.1,0.1c-0.4,0.1-0.7,0.2-0.9,0.4
					s-0.5,0.4-0.6,0.8c-0.2,0.3-0.2,0.8-0.2,1.3v21.3H417.8z"/>
				<path class="st1" d="M444.2,297c-1.2,0-2.2-0.1-3.1-0.4c-0.9-0.2-1.6-0.6-2.2-1s-1-1-1.3-1.6s-0.5-1.3-0.5-2
					c0-0.7,0.2-1.3,0.7-1.7c0.4-0.4,1.1-0.7,1.9-0.7c0,0.7,0.1,1.5,0.3,2.1c0.2,0.7,0.5,1.3,0.9,1.8c0.4,0.5,0.9,0.9,1.5,1.2
					s1.3,0.5,2.1,0.5c1.6,0,2.8-0.4,3.7-1.2c0.9-0.8,1.3-1.9,1.3-3.3c0-0.6-0.1-1.2-0.3-1.7c-0.2-0.5-0.5-1-0.9-1.4
					c-0.4-0.4-1-0.8-1.7-1.2s-1.6-0.8-2.6-1.2c-1.1-0.5-2.1-0.9-2.9-1.4c-0.8-0.5-1.5-1.1-2-1.7c-0.5-0.6-0.9-1.3-1.2-2.1
					s-0.4-1.6-0.4-2.6c0-1,0.2-1.9,0.6-2.7c0.4-0.8,0.9-1.5,1.6-2c0.7-0.5,1.5-1,2.5-1.3c0.9-0.3,2-0.4,3.1-0.4c1.1,0,2,0.1,2.8,0.3
					c0.8,0.2,1.5,0.5,2.1,0.9c0.6,0.4,1,0.8,1.3,1.3c0.3,0.5,0.4,1,0.4,1.5c0,0.8-0.3,1.3-0.8,1.7c-0.5,0.4-1.2,0.6-2,0.6
					c0-0.6-0.1-1.1-0.2-1.6s-0.4-1-0.7-1.4c-0.3-0.4-0.7-0.8-1.2-1c-0.5-0.3-1.1-0.4-1.9-0.4c-0.7,0-1.3,0.1-1.8,0.3
					c-0.5,0.2-1,0.5-1.4,0.8s-0.7,0.8-0.8,1.3c-0.2,0.5-0.3,1.1-0.3,1.7c0,0.7,0.1,1.3,0.3,1.9c0.2,0.5,0.5,1,0.9,1.5
					c0.4,0.4,1,0.8,1.7,1.2c0.7,0.4,1.6,0.8,2.6,1.2c1,0.4,2,0.9,2.8,1.4s1.5,1,2.1,1.6c0.6,0.6,1,1.2,1.3,2
					c0.3,0.7,0.5,1.5,0.5,2.5c0,1.1-0.2,2.1-0.6,3s-1,1.6-1.8,2.2c-0.8,0.6-1.7,1.1-2.8,1.4C446.7,296.9,445.5,297,444.2,297z"/>
				<path class="st1" d="M489.7,284c0,2-0.2,3.7-0.7,5.3s-1.2,3-2.1,4.1c-0.9,1.1-2.1,2-3.5,2.7c-1.4,0.6-3,0.9-4.8,0.9
					c-1.9,0-3.5-0.3-4.9-0.9s-2.6-1.5-3.5-2.7c-0.9-1.1-1.6-2.5-2.1-4.1c-0.5-1.6-0.7-3.4-0.7-5.4s0.2-3.7,0.7-5.3
					c0.5-1.6,1.2-3,2.1-4.1c0.9-1.1,2.1-2,3.5-2.6s3.1-0.9,4.9-0.9c1.8,0,3.4,0.3,4.7,0.9s2.5,1.5,3.5,2.6c0.9,1.1,1.7,2.5,2.1,4.1
					C489.4,280.2,489.7,282,489.7,284z M471.3,284c0,1.8,0.1,3.3,0.4,4.7c0.3,1.4,0.7,2.5,1.3,3.5s1.3,1.7,2.2,2.2
					c0.9,0.5,2,0.8,3.4,0.8c1.3,0,2.4-0.3,3.4-0.8c0.9-0.5,1.7-1.2,2.2-2.2c0.6-1,1-2.1,1.2-3.5c0.3-1.4,0.4-2.9,0.4-4.7
					s-0.1-3.3-0.4-4.7c-0.3-1.4-0.7-2.5-1.2-3.5c-0.6-0.9-1.3-1.7-2.2-2.2c-0.9-0.5-2-0.7-3.3-0.7c-1.3,0-2.4,0.2-3.4,0.7
					c-0.9,0.5-1.7,1.2-2.3,2.2c-0.6,0.9-1,2.1-1.3,3.5C471.4,280.6,471.3,282.2,471.3,284z"/>
			</g>
		</g>
	</g>
</g>
</svg>
